<?xml version="1.0" encoding="UTF-8" standalone="no"?>
<svg
   xmlns:dc="http://purl.org/dc/elements/1.1/"
   xmlns:cc="http://creativecommons.org/ns#"
   xmlns:rdf="http://www.w3.org/1999/02/22-rdf-syntax-ns#"
   xmlns:svg="http://www.w3.org/2000/svg"
   xmlns="http://www.w3.org/2000/svg"
   id="svg8"
   version="1.1"
   viewBox="0 0 66.572739 226.06247"
   height="226.06247mm"
   width="66.572739mm">
  <defs
     id="defs2" />
  <metadata
     id="metadata5">
    <rdf:RDF>
      <cc:Work
         rdf:about="">
        <dc:format>image/svg+xml</dc:format>
        <dc:type
           rdf:resource="http://purl.org/dc/dcmitype/StillImage" />
        <dc:title></dc:title>
      </cc:Work>
    </rdf:RDF>
  </metadata>
  <g
     transform="translate(-69.611453,-33.063222)"
     id="layer1">
    <path
       id="path21"
       d="M 91.506527,101.64538 C 91.456098,97.23784 91.163699,90.122961 90.856792,85.834573 l -0.558021,-7.797122 -1.550715,2.283156 c -1.14135,1.680448 -1.713058,4.8637 -2.165871,12.058967 -0.688047,10.933776 -2.212566,13.607736 -3.07923,5.40089 -0.597213,-5.655022 0.457529,-15.503641 1.961257,-18.313389 0.548328,-1.024559 1.977432,-2.505262 3.17579,-3.290457 2.585845,-1.694305 2.541542,-4.900178 -0.07401,-5.350764 -2.447928,-0.421767 -3.898577,-2.617142 -3.898577,-5.90008 0,-2.989382 2.468688,-5.514811 5.390843,-5.514811 2.793343,0 1.805757,-3.138493 -1.264696,-4.019073 -5.468545,-1.568364 -6.026664,-8.326295 -0.877829,-10.629627 2.225433,-0.995542 2.775922,-1.793444 2.988593,-4.331711 0.35861,-4.279847 2.859747,-4.3491 2.859747,-0.07924 0,2.583029 0.385001,3.171239 2.59904,3.970613 2.173764,0.784837 2.643867,1.472064 2.872976,4.200115 0.284871,3.391082 -1.58552,6.55718 -3.873594,6.55718 -0.65648,0 -1.165254,0.919348 -1.165254,2.105585 0,1.521048 0.538898,2.182476 1.941152,2.382481 2.893603,0.412667 4.537437,4.370249 3.08378,7.424195 -0.623737,1.310346 -2.009488,2.767285 -3.079491,3.237639 -2.747468,1.207761 -2.449564,4.049824 0.606743,5.788656 1.790923,1.018917 2.836726,2.543153 3.542035,5.162386 1.35605,5.035999 2.35457,19.548068 1.45556,21.154518 -1.32432,2.36644 -2.351469,0.355 -2.368855,-4.639014 -0.02947,-8.409443 -1.599306,-16.890587 -3.474348,-18.767851 -1.697932,-1.699983 -1.706576,-1.626608 -1.706576,14.51131 0,13.840165 -0.190569,16.219945 -1.299503,16.219945 -1.054876,0 -1.316793,-1.50877 -1.391285,-8.01372 z m 4.794776,-34.932344 c 1.633949,-1.63396 1.691873,-2.293315 0.321871,-3.663412 -1.27678,-1.276785 -5.418021,-1.353795 -7.680782,-0.142763 -1.878251,1.0052 -2.254806,3.923194 -0.592827,4.593823 2.32242,0.937122 6.656359,0.507828 7.951836,-0.787648 z M 95.425994,51.954345 c 0.753699,-0.289128 1.370363,-1.432541 1.370363,-2.540658 0,-2.42206 -2.397143,-3.391147 -6.489269,-2.623467 -5.299685,0.994233 -4.562524,5.68999 0.893251,5.68999 1.570394,0 3.471925,-0.236738 4.225655,-0.525865 z m 19.030546,56.457195 c -0.26327,-0.68615 -0.76159,-7.80102 -1.10729,-15.810827 l -0.62856,-14.563262 -1.48624,3.272807 c -0.95311,2.09885 -1.68186,6.692441 -2.03166,12.806141 -0.698,12.199491 -2.33922,12.453551 -2.69275,0.416859 -0.28913,-9.840794 1.31787,-16.170075 4.66155,-18.360934 3.00892,-1.971541 2.72127,-4.548645 -0.58144,-5.209172 -3.08149,-0.616278 -4.62812,-3.590324 -3.80828,-7.322994 0.38644,-1.759529 1.32145,-2.6627 3.50117,-3.382085 2.29912,-0.758763 2.9739,-1.457682 2.9739,-3.080136 0,-1.644595 -0.45524,-2.098686 -2.10399,-2.098686 -6.28129,0 -6.39952,-10.02763 -0.13687,-11.599497 1.61607,-0.405598 2.19698,-1.198883 2.40268,-3.281062 0.38395,-3.887018 2.43712,-4.289735 2.43712,-0.478059 0,2.61885 0.3405,3.07615 2.81565,3.781682 2.46246,0.701895 2.84985,1.214927 3.08845,4.090095 0.32154,3.873823 -1.7012,7.486841 -4.19137,7.486841 -2.99884,0 -2.20094,3.804144 1.10292,5.258294 2.02092,0.889491 2.89183,1.899672 3.08561,3.578902 0.36407,3.154664 -1.16228,5.755486 -3.7604,6.407546 -3.03302,0.761253 -2.82371,3.85336 0.38443,5.678392 2.04408,1.162834 2.71598,2.378085 3.5923,6.497622 1.39093,6.53831 1.58323,20.378213 0.28946,20.824803 -0.63386,0.21874 -1.15936,-2.67821 -1.55635,-8.579995 -0.63961,-9.509132 -1.74148,-14.990373 -3.19394,-15.888015 -0.60418,-0.37341 -0.86017,4.191993 -0.78731,14.041569 0.0593,8.027171 0.0832,15.082181 0.0524,15.677801 -0.0759,1.48529 -1.73323,1.36778 -2.32128,-0.16471 z m 4.21508,-41.78767 c 1.49348,-0.883459 0.5609,-3.736786 -1.38054,-4.224075 -4.91024,-1.232389 -10.78549,2.698938 -7.36819,4.930262 1.06945,0.698297 7.21278,0.202356 8.74873,-0.706187 z m 0.21676,-17.609069 c 0,-1.957982 -0.3815,-2.190659 -3.97445,-2.424156 -4.28756,-0.278649 -6.61762,1.267972 -5.66199,3.758271 0.40022,1.042988 1.57302,1.295608 5.07841,1.09397 4.21439,-0.242304 4.55803,-0.425472 4.55803,-2.428085 z"
       style="fill:#000000;stroke-width:0.8663469" />
    <g
       transform="translate(0,-0.7559524)"
       id="text25"
       style="font-style:normal;font-variant:normal;font-weight:normal;font-stretch:normal;font-size:69.81378937px;line-height:125%;font-family:KaiTi;-inkscape-font-specification:'KaiTi, Normal';text-align:start;letter-spacing:0px;word-spacing:0px;writing-mode:lr-tb;text-anchor:start;fill:#000000;fill-opacity:1;stroke:none;stroke-width:1.55141759px;stroke-linecap:butt;stroke-linejoin:miter;stroke-opacity:1"
       aria-label="絲
丝">
      <path
         id="path42"
         style="stroke-width:1.55141759px"
         d="m 116.13927,148.51726 q 3.81794,-4.90879 4.36336,-6.27234 0.81813,-1.36355 0.81813,-2.99981 0,-1.63626 1.09084,-1.63626 1.09084,0 2.99982,2.45439 1.90897,2.18168 0.54542,2.7271 -1.36356,0.54542 -8.99944,8.72673 -7.36317,7.90859 -7.90859,8.45401 -0.27271,0.54542 2.99981,0 3.54523,-0.81813 9.81756,-2.45439 -1.90897,-2.7271 -1.90897,-3.54523 0.27271,-1.09084 2.7271,0.27271 2.72711,1.09084 3.81795,2.99981 1.09084,1.90897 0,3.81794 -1.09084,1.90897 -3.54524,-1.90897 -7.09046,2.18168 -8.45401,2.7271 -1.36355,0.27271 0.27271,1.36355 1.90897,0.81813 1.63626,1.63626 -0.27271,0.81813 -0.27271,4.36336 0,3.27253 0.27271,6.27234 0.27271,2.7271 -0.27271,5.18149 -0.27271,2.18168 -1.63626,4.63607 -1.09084,2.45439 -2.45439,0 -1.09084,-2.45439 -3.54523,-4.63607 -2.45439,-2.45439 -0.54542,-1.63626 1.90897,0.54542 2.99981,0.81813 1.36355,0 1.63626,-2.45439 0.27271,-2.7271 0.27271,-4.90878 0,-2.18169 -0.54542,-5.99963 -0.54542,-3.81794 -2.99981,-2.7271 -2.18168,0.81813 -3.54523,1.63626 -1.36355,0.81813 -2.45439,-1.63626 -0.81813,-2.45439 0.54542,-2.99981 1.63626,-0.54542 3.81794,-2.7271 2.45439,-2.45439 4.09065,-4.36336 1.90897,-2.18168 2.45439,-2.99981 -4.90878,0.54542 -6.54504,1.36355 -1.63626,0.54542 -2.45439,-0.27271 -0.81813,-0.81813 -1.36355,-1.90897 -0.54542,-1.36355 0.81813,-2.18169 1.63626,-0.81813 4.63607,-4.90878 2.99981,-4.36336 3.81794,-6.27233 1.09084,-2.18168 0.54542,-4.09065 -0.27271,-2.18168 1.63626,-1.36355 1.90897,0.54542 2.99981,2.18168 1.36355,1.63626 -0.27271,2.99981 -1.63626,1.36355 -4.90878,5.99962 -3.27252,4.63607 -4.36336,5.72692 -0.81813,1.09084 1.09084,1.09084 1.90897,-0.27271 6.27233,-0.54542 z m -26.72559,2.99981 q 5.181492,-6.81776 4.636072,-8.99944 -0.27271,-2.18168 0.81813,-1.90897 1.090841,0.27271 3.272522,2.45439 2.454386,1.90897 0.54542,2.99981 -1.908971,0.81813 -5.726913,5.45421 -3.545231,4.63607 -6.817752,8.1813 -2.999812,3.27252 -1.090841,2.7271 1.908971,-0.54542 7.090463,-1.90897 -2.181681,-5.18149 -0.27271,-4.36336 1.908971,0.54542 3.817942,2.99981 1.90897,2.18168 0.81813,4.63607 -0.81813,2.45439 -3.817942,-1.90897 -3.817941,1.63626 -7.090463,3.27252 -2.999811,1.36355 -4.363362,2.7271 -1.09084,1.09084 -2.727101,-1.36355 -1.36355,-2.45439 0.27271,-3.27252 1.908971,-0.81813 5.181493,-4.63607 3.272521,-3.81794 4.090651,-4.90878 1.090841,-1.09084 -3.817941,0.27271 -4.636072,1.09084 -5.454203,2.18168 -0.81813,0.81813 -2.18168,-1.90897 -1.090841,-2.7271 0.54542,-2.99981 1.63626,-0.27271 5.999622,-7.36318 4.636072,-7.09046 3.817942,-9.54485 -0.81813,-2.7271 1.09084,-1.90897 2.181681,0.81813 3.545232,2.18168 1.636261,1.09084 0.27271,2.45439 -1.363551,1.36355 -5.726912,7.36317 -4.090652,5.72692 -5.181493,7.09047 -0.81813,1.09084 1.636261,0.81813 2.454391,-0.54542 6.817753,-0.81813 z m 31.63437,15.81718 q 1.36355,0 4.36337,1.09084 2.99981,1.09084 4.09065,4.09066 1.36355,2.7271 0.27271,4.63607 -1.09084,1.63626 -3.54523,-1.90897 -2.4544,-3.54523 -4.36337,-5.72692 -1.90897,-2.18168 -0.81813,-2.18168 z m -45.542586,5.72692 q 1.908971,0.81813 3.545232,2.45439 1.63626,1.63626 1.63626,4.63607 0,2.7271 -1.36355,2.99981 -1.090841,0.54542 -2.727101,-2.45439 -1.363551,-2.99981 -2.181681,-5.72691 -0.818131,-2.99981 1.09084,-1.90897 z m 28.634566,-3.27253 q 1.09084,2.72711 -0.54542,6.27234 -1.36355,3.27252 -2.99982,3.81794 -1.636256,0.54542 -1.636256,-1.63626 0,-2.45439 1.363546,-4.09065 1.63627,-1.90897 2.18169,-4.63608 0.54542,-2.7271 1.63626,0.27271 z m -19.089712,1.36355 q 2.999811,1.36356 3.817942,2.99982 0.81813,1.36355 -0.27271,2.99981 -1.090841,1.63626 -2.727102,-0.27271 -1.36355,-2.18168 -2.454391,-4.63607 -1.09084,-2.4544 1.636261,-1.09085 z m 8.454014,-2.7271 q 2.181681,0.81813 3.272521,2.45439 1.09084,1.36356 0.81813,3.27253 -0.27271,1.63626 -1.63626,1.09084 -1.090841,-0.54542 -2.727101,-4.09066 -1.636261,-3.81794 0.27271,-2.7271 z" />
      <path
         id="path44"
         style="stroke-width:1.55141759px"
         d="m 116.11527,225.17716 q -0.54542,1.09084 1.36355,-1.90897 2.18168,-2.99981 2.45439,-4.90878 0.27271,-2.18168 1.90897,-1.09084 1.90898,1.09084 2.99982,2.7271 1.09084,1.36355 -1.09084,2.7271 -1.90898,1.09084 -7.9086,7.36318 -5.72691,5.99962 -6.54504,6.81775 -0.81813,0.81813 5.72691,0.27271 6.81775,-0.54542 8.45402,0.27271 1.90897,0.81813 -5.99963,2.18168 -7.63588,1.36355 -10.36298,2.7271 -2.45439,1.36355 -3.27252,-1.36355 -0.81813,-2.99981 1.63626,-3.81794 2.45439,-1.09084 9.81756,-10.6357 -8.1813,1.09084 -9.81756,2.45439 -1.36355,1.09085 -2.45439,-1.36355 -1.09084,-2.45439 0.54542,-3.54523 1.90897,-1.09084 5.72691,-7.63588 4.09065,-6.54504 3.54523,-9.27214 -0.54542,-2.72711 1.63626,-1.63626 2.18168,0.81813 3.54523,2.18168 1.63626,1.09084 0.27271,2.45439 -1.36355,1.09084 -5.99962,7.36317 -4.36336,6.27233 -4.90878,6.81775 -0.54542,0.27271 8.72672,0.81813 z m -23.180357,0.54542 q 4.090647,-5.18149 4.090647,-7.36317 0,-2.18168 1.63627,-1.09084 1.63626,0.81813 2.99981,2.7271 1.36355,1.90897 -0.81813,3.27252 -1.90897,1.09084 -6.272337,5.4542 -4.363361,4.09066 -7.090463,7.09047 -2.727101,2.7271 -0.54542,2.45439 2.454391,-0.27271 8.454014,-1.36355 6.272336,-1.09084 4.363366,0.27271 -1.90898,1.09084 -8.181308,2.99981 -6.272333,1.90897 -8.181303,3.27252 -1.908971,1.36355 -3.272522,-1.36355 -1.09084,-2.7271 0.818131,-3.27252 1.90897,-0.81813 10.908404,-11.45383 -6.817753,0.54542 -9.272144,2.18169 -2.454391,1.63626 -3.272521,-0.54543 -0.54542,-2.45439 0,-2.99981 0.81813,-0.81813 2.727101,-2.45439 1.908971,-1.90897 4.090652,-7.09046 2.181681,-5.4542 1.908971,-7.90859 -0.272711,-2.7271 1.63626,-1.90897 1.908971,0.81813 3.545232,2.18168 1.908971,1.36355 0.27271,2.7271 -1.363551,1.09084 -3.817942,4.90878 -2.454391,3.81794 -4.090651,6.54504 -1.636261,2.45439 -0.272711,2.45439 1.363551,0 7.635884,0.27271 z m -17.453448,27.81644 q -3.272521,-2.4544 -0.81813,-2.18169 2.727101,0.27271 14.726346,-0.54542 12.271959,-1.09084 22.907649,-2.18168 10.90841,-1.36355 13.63551,-0.81813 2.99981,0.27271 4.90878,2.18168 2.18168,1.63626 0.81813,2.45439 -1.09084,0.54542 -4.63607,0 -3.27252,-0.54542 -9.54486,-0.54542 -5.99962,0 -17.45344,1.09084 -11.181119,0.81814 -16.362611,1.90898 -4.908782,0.81813 -8.181304,-1.36355 z" />
    </g>
  </g>
</svg>
